<?xml version="1.0" standalone="no"?>
<!DOCTYPE svg PUBLIC "-//W3C//DTD SVG 20010904//EN"
 "http://www.w3.org/TR/2001/REC-SVG-20010904/DTD/svg10.dtd">
<svg version="1.0" xmlns="http://www.w3.org/2000/svg"
 width="260.000000pt" height="260.000000pt" viewBox="0 0 260.000000 260.000000"
 preserveAspectRatio="xMidYMid meet">
<metadata>
Created by potrace 1.11, written by Peter Selinger 2001-2013
</metadata>
<g transform="translate(0.000000,260.000000) scale(0.100000,-0.100000)"
fill="#000000" stroke="none">
<path d="M1588 2418 c-34 -26 -29 -22 -214 -209 -187 -190 -197 -207 -168
-277 8 -20 38 -60 66 -89 44 -45 49 -54 38 -68 -12 -14 -26 -3 -120 90 l-107
105 -60 0 c-37 0 -67 -6 -79 -15 -10 -8 -24 -15 -30 -15 -11 0 -41 67 -47 106
-3 25 -52 86 -61 77 -3 -4 -6 -1 -6 5 0 19 -39 14 -62 -8 -12 -10 -26 -17 -31
-13 -6 3 -7 1 -3 -5 6 -10 -8 -25 -26 -28 -5 -1 -9 -2 -10 -4 -2 -1 -17 -3
-35 -3 -42 -3 -73 -39 -73 -87 0 -27 -7 -43 -30 -65 -25 -24 -30 -36 -30 -77
0 -35 4 -48 14 -48 8 0 16 -4 18 -9 2 -4 35 -19 73 -32 39 -14 71 -29 72 -34
1 -6 -14 -27 -33 -47 -39 -42 -50 -80 -39 -134 5 -29 29 -60 110 -144 97 -98
103 -107 88 -123 -15 -15 -21 -11 -80 43 -77 70 -114 81 -176 51 -42 -21 -356
-318 -389 -369 -19 -28 -24 -116 -9 -140 14 -23 365 -373 383 -383 25 -14 106
-11 136 5 15 8 108 97 208 198 186 188 202 211 187 269 -9 35 -32 67 -83 115
-43 41 -44 44 -27 61 17 17 21 15 94 -60 95 -97 146 -116 258 -100 39 6 78 14
89 18 16 7 17 6 7 -13 -16 -30 -14 -95 6 -155 17 -55 66 -135 87 -143 7 -3 54
36 104 85 l93 90 72 -45 c48 -30 71 -50 69 -61 -5 -23 18 -72 39 -83 34 -18
66 -11 93 21 33 38 33 69 1 103 -17 18 -34 26 -59 26 -32 0 -37 5 -74 69 l-40
69 94 93 c52 52 94 96 94 99 -1 10 -94 65 -140 82 -48 19 -169 24 -198 9 -15
-8 -17 0 -17 87 0 88 -2 101 -27 139 -15 23 -35 47 -45 55 -10 8 -38 35 -62
60 -38 40 -42 49 -31 63 11 14 20 8 75 -44 70 -68 113 -83 170 -60 19 8 93 71
165 142 72 70 132 127 135 127 10 0 73 69 93 102 15 25 22 51 22 89 l0 53
-201 202 -201 201 -53 -1 c-35 0 -61 -7 -77 -18z"/>
<path d="M542 1990 c0 -14 2 -19 5 -12 2 6 2 18 0 25 -3 6 -5 1 -5 -13z"/>
<path d="M2128 939 c-17 -10 -42 -81 -52 -149 -19 -125 -143 -233 -289 -250
-83 -9 -107 -28 -107 -81 0 -79 76 -101 203 -58 64 21 160 71 184 95 8 7 22
19 32 26 10 7 34 38 54 68 20 30 42 61 47 68 6 6 8 12 4 12 -3 0 -1 7 6 15 7
8 10 15 6 15 -3 0 1 17 10 38 31 72 29 153 -7 190 -21 23 -62 28 -91 11z"/>
<path d="M2362 903 c-28 -32 -32 -42 -26 -68 15 -61 1 -180 -24 -208 -9 -11
-15 -21 -13 -24 2 -2 -9 -28 -25 -56 -83 -154 -315 -280 -452 -247 -45 10 -54
10 -76 -7 -46 -34 -48 -83 -4 -123 30 -28 34 -29 134 -28 66 0 113 5 129 14
15 7 37 15 50 17 12 1 29 8 36 14 8 5 32 19 54 29 22 10 51 28 64 41 14 12 28
20 33 17 4 -3 8 2 8 10 0 9 4 16 10 16 12 0 60 48 60 60 0 6 7 10 15 10 8 0
14 3 13 8 -3 8 46 83 75 113 9 11 14 19 10 19 -4 0 -2 5 5 12 7 7 12 20 12 29
0 9 7 22 15 29 8 7 15 18 14 24 -1 6 -1 25 0 41 1 21 4 26 10 17 6 -10 8 -5 9
15 1 15 4 58 8 96 4 46 3 72 -6 82 -6 8 -8 20 -4 27 4 7 4 10 0 6 -5 -4 -21 7
-37 23 -37 38 -57 37 -97 -8z"/>
</g>
</svg>
